<svg width="301" height="491" viewBox="0 0 301 491" fill="none" xmlns="http://www.w3.org/2000/svg">
<path d="M101.076 256.108L292.614 64.562C297.888 59.3004 300.79 52.2656 300.79 44.7646C300.79 37.2594 297.888 30.2288 292.614 24.959L275.831 8.18367C270.565 2.9055 263.526 0 256.025 0C248.524 0 241.493 2.9055 236.224 8.18367L8.16714 236.236C2.87647 241.522 -0.0207015 248.586 0.000111522 256.096C-0.0207015 263.638 2.87231 270.694 8.16714 275.985L236.011 503.816C241.281 509.094 248.312 512 255.817 512C263.318 512 270.349 509.094 275.623 503.816L292.402 487.041C303.321 476.123 303.321 458.348 292.402 447.434L101.076 256.108Z" fill="#FFFF99"/>
</svg>
