<svg width="285" height="512" viewBox="0 0 285 512" fill="none" xmlns="http://www.w3.org/2000/svg">
<path d="M293.626 236.022L65.7791 8.17945C60.5093 2.90547 53.4746 0 45.9736 0C38.4727 0 31.4379 2.90547 26.1681 8.17945L9.38881 24.9546C-1.5296 35.8855 -1.5296 53.6513 9.38881 64.5656L200.717 255.894L9.17652 447.434C3.90671 452.708 0.99707 459.739 0.99707 467.236C0.99707 474.741 3.90671 481.771 9.17652 487.05L25.9558 503.821C31.2298 509.095 38.2604 512 45.7613 512C53.2623 512 60.297 509.095 65.5668 503.821L293.626 275.77C298.908 270.479 301.809 263.416 301.793 255.906C301.809 248.368 298.908 241.308 293.626 236.022Z" fill="#FFFF99"/>
</svg>
